<svg width="36" height="35" viewBox="0 0 36 35" fill="none" xmlns="http://www.w3.org/2000/svg">
<path fill-rule="evenodd" clip-rule="evenodd" d="M0.437337 0.102008C-0.0333283 0.300813 0.00062206 -1.05063 0.00062206 17.4943C0.00062206 36.0998 -0.0359993 34.6911 0.452731 34.8896C0.815008 35.0368 5.44209 35.0368 5.80437 34.8896C6.11568 34.7632 6.25648 34.4545 6.25648 33.8984V33.4861H17.5645C23.7838 33.4861 28.9792 33.4669 29.1097 33.4434C29.3045 33.4083 29.7945 32.9655 31.851 30.9661C33.9074 28.9666 34.3629 28.4902 34.399 28.3008C34.4232 28.1739 34.443 23.1226 34.443 17.0757V6.08137H34.867C35.4389 6.08137 35.7564 5.94449 35.8864 5.6418C36.0379 5.28957 36.0379 0.790818 35.8864 0.438588C35.6822 -0.0366556 37.1338 -0.00125492 17.9797 0.00168375C3.13698 0.00400735 0.635415 0.0182906 0.437337 0.102008ZM4.71008 3.0402V4.57787H3.12855H1.54701V3.0402V1.50252H3.12855H4.71008V3.0402ZM34.443 3.0402V4.57787H20.3497H6.25648V3.0402V1.50252H20.3497H34.443V3.0402ZM4.71008 19.7838V33.4861H3.12855H1.54701V19.7838V6.08137H3.12855H4.71008V19.7838ZM17.2218 8.06668C17.2218 10.2731 17.2354 10.3486 17.6686 10.5485C17.9693 10.6872 18.0206 10.6872 18.3213 10.5485C18.7546 10.3486 18.7682 10.2731 18.7682 8.06668V6.08137H25.7972H32.8263V15.9567V25.8319L30.1025 25.8358C27.1621 25.8399 27.0119 25.8561 26.7528 26.1957C26.6099 26.3828 26.6049 26.4704 26.585 29.1514L26.5645 31.9143H16.4104H6.25648V25.0802V18.2461H8.29842C10.5677 18.2461 10.6454 18.2329 10.851 17.8116C10.9937 17.5193 10.9937 17.4694 10.851 17.177C10.6454 16.7558 10.5677 16.7426 8.29842 16.7426H6.25648V11.412V6.08137H11.7391H17.2218V8.06668ZM17.8193 13.726C17.604 13.793 17.4707 13.8902 17.3406 14.0754C17.2397 14.2188 17.2218 14.4331 17.2218 15.4935V16.7426H15.9498C14.576 16.7426 14.3828 16.7852 14.1931 17.1297C13.9991 17.4821 14.1269 17.9297 14.4793 18.132C14.6503 18.2302 14.9184 18.2461 16.4102 18.2461C18.9095 18.2461 18.7682 18.3834 18.7682 15.9535C18.7682 14.5031 18.7519 14.2424 18.6509 14.0761C18.4821 13.7983 18.1018 13.6382 17.8193 13.726ZM32.8263 27.6255C32.8263 27.825 32.6168 28.0509 30.7356 29.8807C28.8507 31.7141 28.6223 31.9143 28.416 31.9143H28.1871V29.659V27.4038H30.5067H32.8263V27.6255Z" fill="#16067E"/>
</svg>
