<svg width="36" height="35" viewBox="0 0 36 35" fill="none" xmlns="http://www.w3.org/2000/svg">
<path fill-rule="evenodd" clip-rule="evenodd" d="M0.205523 0.199814L0 0.399629V1.70823C0 3.36868 0.0496406 3.48018 0.791016 3.48414L1.19531 3.48633V16.06C1.19531 24.2233 1.21985 28.6963 1.2652 28.8123C1.34909 29.0269 1.71105 29.1895 2.1048 29.1895H2.38598L2.40588 31.9298L2.42578 34.6702L2.62308 34.835C2.81721 34.9974 2.84238 35 4.21242 35C5.5587 35 5.61009 34.9949 5.77477 34.8462C5.92545 34.7102 6.00827 34.3887 6.49301 32.0605C6.7943 30.613 7.05663 29.3748 7.07597 29.3091C7.10916 29.1958 7.6898 29.1895 18 29.1895C28.3102 29.1895 28.8908 29.1958 28.924 29.3091C28.9434 29.3748 29.2057 30.613 29.507 32.0605C29.9917 34.3887 30.0746 34.7102 30.2252 34.8462C30.3899 34.9949 30.4413 35 31.7876 35C33.1576 35 33.1828 34.9974 33.3769 34.835L33.5742 34.6702L33.5941 31.9298L33.614 29.1895H33.8952C34.2889 29.1895 34.6509 29.0269 34.7348 28.8123C34.7801 28.6963 34.8047 24.2233 34.8047 16.06V3.48633L35.209 3.48414C35.9504 3.48018 36 3.36868 36 1.70823V0.399629L35.7945 0.199814L35.589 0H18H0.411047L0.205523 0.199814ZM34.8047 1.74316V2.32422H18H1.19531V1.74316V1.16211H18H34.8047V1.74316ZM33.6094 15.7568V28.0273H18H2.39062V15.7568V3.48633H18H33.6094V15.7568ZM4.64062 4.69643C4.58262 4.71721 4.46393 4.79719 4.37695 4.87416L4.21875 5.01409L4.221 9.90691C4.22332 15.0775 4.21362 14.9231 4.54809 15.0963C4.76951 15.2109 31.2305 15.2109 31.4519 15.0963C31.7864 14.9231 31.7767 15.0775 31.779 9.90691L31.7812 5.01409L31.5998 4.84832L31.4184 4.68262L18.0822 4.67065C10.7473 4.66409 4.69863 4.67564 4.64062 4.69643ZM30.5859 9.91211V14.0137H18H5.41406V9.91211V5.81055H18H30.5859V9.91211ZM17.6714 7.04771C16.2745 7.29887 15.734 8.99739 16.7398 9.97521C17.8555 11.06 19.7719 10.2856 19.7719 8.75C19.7719 7.65844 18.7736 6.84947 17.6714 7.04771ZM18.3998 8.35174C18.7624 8.68294 18.5091 9.29688 18.0098 9.29688C17.6738 9.29688 17.4375 9.07512 17.4375 8.75957C17.4375 8.2626 18.0281 8.01227 18.3998 8.35174ZM4.40409 16.5181L4.21875 16.6983V21.5729V26.4474L4.38841 26.6392L4.55815 26.8311H18H31.4419L31.6116 26.6392L31.7812 26.4474V21.5729V16.6983L31.5959 16.5181L31.4105 16.3379H18H4.58951L4.40409 16.5181ZM30.5859 21.5674V25.6348H18H5.41406V21.5674V17.5H18H30.5859V21.5674ZM17.4353 18.7671C16.5153 19.0429 15.9602 20.1977 16.3318 21.0626C16.8371 22.2383 18.4724 22.5132 19.3276 21.5661C19.6475 21.2119 19.7719 20.8958 19.7719 20.4368C19.7719 19.6546 19.2699 18.9752 18.5352 18.7631C18.111 18.6406 17.8542 18.6415 17.4353 18.7671ZM18.2762 19.9242C18.5038 20.0387 18.5625 20.1515 18.5625 20.4742C18.5625 20.746 18.2985 20.9863 18 20.9863C17.3942 20.9863 17.2134 20.1906 17.7539 19.9032C17.9435 19.8023 18.0416 19.8062 18.2762 19.9242ZM5.83594 29.2779C5.83594 29.3265 5.63027 30.3634 5.37891 31.582C5.12754 32.8007 4.92188 33.8068 4.92188 33.8178C4.92188 33.8289 4.62129 33.8379 4.25391 33.8379H3.58594V31.5137V29.1895H4.71094C5.58429 29.1895 5.83594 29.2092 5.83594 29.2779ZM32.4141 31.5137V33.8379H31.7461C31.3787 33.8379 31.0781 33.8289 31.0781 33.8178C31.0781 33.8068 30.8725 32.8007 30.6211 31.582C30.3697 30.3634 30.1641 29.3265 30.1641 29.2779C30.1641 29.2092 30.4157 29.1895 31.2891 29.1895H32.4141V31.5137Z" fill="#16067E"/>
</svg>
