<svg width="34" height="35" viewBox="0 0 34 35" fill="none" xmlns="http://www.w3.org/2000/svg">
<path fill-rule="evenodd" clip-rule="evenodd" d="M17.9688 0.0470382C17.3781 0.229183 16.9214 0.694917 16.6679 1.3738C16.47 1.9034 16.3671 2.78497 16.4186 3.50752L16.4631 4.13281L16.0579 5.15032C14.7171 8.5169 13.0558 11.7382 11.7863 13.4332C11.5084 13.8044 11.0169 14.3616 10.6942 14.6716C10.0352 15.3046 9.72189 15.7046 9.25602 16.5084L8.9359 17.0605L8.47665 16.9037C8.02875 16.7508 7.95018 16.7468 5.31368 16.7451C2.43646 16.7432 2.26865 16.7592 1.60469 17.098C1.02218 17.3952 0.429011 18.1039 0.153985 18.8311C0.0309236 19.1563 0.0234757 19.4837 0.00400176 25.4365C-0.0086392 29.3169 0.00912646 31.8648 0.0508075 32.1336C0.252584 33.4343 1.31278 34.4943 2.5984 34.6805C2.83537 34.7148 4.07473 34.743 5.35249 34.7431C7.89606 34.7434 8.3251 34.6978 8.94102 34.3619L9.27966 34.1773L10.5276 34.3261C13.7224 34.7073 15.9648 34.849 20.4969 34.9558C22.9958 35.0148 24.0554 35.0148 24.7675 34.9557C27.5878 34.7219 29.6997 33.825 30.7719 32.4057C31.381 31.5994 31.6259 30.8559 31.636 29.7831C31.6423 29.109 31.6458 29.0949 31.8647 28.859C32.4927 28.1824 32.9664 27.3506 33.1536 26.5958C33.3092 25.9685 33.2988 24.9743 33.1296 24.3116L32.9941 23.7808L33.2022 23.4778C33.7558 22.6717 34.0581 21.6479 33.9907 20.8076C33.9377 20.1463 33.6661 19.3208 33.3305 18.8005L33.0527 18.3701L33.1555 18.068C33.4403 17.2306 33.4378 16.1695 33.1489 15.3743C32.9644 14.8662 32.4556 14.1559 32.01 13.7845C30.3181 12.3738 27.0179 12.0625 22.727 12.9091C22.1529 13.0223 21.6403 13.1151 21.5877 13.1152C21.5099 13.1154 21.5005 13.0073 21.5372 12.5303C21.5928 11.8045 21.7943 10.9424 22.32 9.17963C22.8333 7.45839 22.9922 6.72228 23.0771 5.67219C23.15 4.77036 23.0956 3.97908 22.9135 3.29293C22.5058 1.75685 21.2777 0.536592 19.7452 0.144922C19.1985 0.00521532 18.2705 -0.0459168 17.9688 0.0470382ZM19.413 2.10143C20.4338 2.44587 20.9545 3.16911 21.0964 4.4394C21.2126 5.47998 21.0153 6.66471 20.3914 8.67159C19.7353 10.7822 19.4918 12.0815 19.5463 13.1819C19.6097 14.4642 20.1864 15.1671 21.1763 15.1686C21.3108 15.1688 21.9566 15.0603 22.6112 14.9275C24.6286 14.5182 25.1551 14.4599 26.8763 14.4549C28.1415 14.4512 28.5674 14.4746 29.0613 14.5752C31.1198 14.9943 31.8615 16.1773 31.1105 17.8433C30.7721 18.5942 30.7918 18.7355 31.3267 19.3932C32.2797 20.5655 32.2399 21.6061 31.1942 22.8516C30.8201 23.2972 30.784 23.6604 31.053 24.2748C31.227 24.6724 31.247 24.7949 31.2481 25.4707C31.2493 26.1659 31.234 26.255 31.0492 26.6327C30.9116 26.914 30.6619 27.226 30.2504 27.6313C29.8977 27.9786 29.6318 28.3006 29.603 28.4152C29.5763 28.5222 29.5931 28.893 29.6406 29.2393C29.7415 29.9753 29.6788 30.3953 29.3883 30.93C28.8919 31.8437 27.5732 32.5264 25.6264 32.8775C25.0548 32.9806 24.5706 32.9951 22.1274 32.9828C17.4554 32.9593 13.8567 32.7658 10.853 32.3767L10.5455 32.3369L10.5678 26.2685C10.5834 22.0295 10.5665 19.981 10.5118 19.4733C10.4337 18.7495 10.4342 18.7444 10.6297 18.2412C10.9761 17.3495 11.3509 16.7985 12.1841 15.956C13.4741 14.6517 14.5067 13.1 15.8021 10.5187C16.613 8.90309 17.3382 7.28137 17.9844 5.63906L18.4348 4.49423L18.4191 3.48288C18.4105 2.92666 18.4279 2.35606 18.4578 2.21485C18.508 1.97774 18.5302 1.95816 18.7503 1.95816C18.8813 1.95816 19.1796 2.02264 19.413 2.10143ZM8.05219 18.8824C8.17641 18.9671 8.34239 19.1233 8.42103 19.2297C8.56364 19.4225 8.56398 19.4381 8.56398 25.7032V31.9834L8.37976 32.2623C8.05328 32.7566 7.97122 32.7688 5.13534 32.7461C2.76137 32.7272 2.6558 32.7208 2.47473 32.5853C2.371 32.5076 2.22273 32.3591 2.14524 32.2551C2.00565 32.0679 2.00421 32.0075 1.98624 25.8207L1.96806 19.5753L2.12461 19.2789C2.41658 18.7257 2.401 18.7284 5.29011 18.7284C7.80778 18.7284 7.82793 18.7295 8.05219 18.8824Z" fill="#16067E"/>
</svg>
