<svg width="29" height="41" viewBox="0 0 29 41" fill="none" xmlns="http://www.w3.org/2000/svg">
<path d="M14.5 38L13.7552 38.6673L14.5 39.4985L15.2448 38.6673L14.5 38ZM14.5 38C15.2448 38.6673 15.2449 38.6672 15.2451 38.6669L15.2458 38.6662L15.2479 38.6638L15.2556 38.6552L15.2842 38.623C15.3091 38.5949 15.3454 38.5538 15.3925 38.5001C15.4866 38.3927 15.6236 38.2351 15.7973 38.0318C16.1447 37.6254 16.6393 37.036 17.232 36.2998C18.4167 34.8284 19.9979 32.7652 21.581 30.4C23.1623 28.0376 24.7576 25.356 25.9607 22.6491C27.158 19.9552 28 17.1632 28 14.6C28 7.08924 21.9705 1 14.5 1C7.0295 1 1 7.08924 1 14.6C1 17.1632 1.84202 19.9552 3.03931 22.6491C4.24237 25.356 5.83774 28.0376 7.41898 30.4C9.00211 32.7652 10.5833 34.8284 11.768 36.2998C12.3607 37.036 12.8553 37.6254 13.2027 38.0318C13.3764 38.2351 13.5134 38.3927 13.6075 38.5001C13.6546 38.5538 13.6909 38.5949 13.7158 38.623L13.7444 38.6552L13.7521 38.6638L13.7542 38.6662L13.7549 38.6669C13.7551 38.6672 13.7552 38.6673 14.5 38ZM14.5 18.1C12.5955 18.1 11.0357 16.5392 11.0357 14.6C11.0357 12.6608 12.5955 11.1 14.5 11.1C16.4045 11.1 17.9643 12.6608 17.9643 14.6C17.9643 16.5392 16.4045 18.1 14.5 18.1Z" stroke="#16067E" stroke-width="2"/>
</svg>
